<?xml version="1.0" standalone="no"?>
<!DOCTYPE svg PUBLIC "-//W3C//DTD SVG 20010904//EN"
 "http://www.w3.org/TR/2001/REC-SVG-20010904/DTD/svg10.dtd">
<svg version="1.0" xmlns="http://www.w3.org/2000/svg"
 width="300.000000pt" height="300.000000pt" viewBox="0 0 300.000000 300.000000"
 preserveAspectRatio="xMidYMid meet">
<metadata>
Created by potrace 1.11, written by Peter Selinger 2001-2013
</metadata>
<g transform="translate(0.000000,300.000000) scale(0.100000,-0.100000)"
fill="#000000" stroke="none">
<path d="M0 2925 l0 -75 41 22 c35 18 51 20 120 15 114 -9 130 -20 201 -138
33 -53 50 -130 63 -279 26 -303 28 -347 27 -547 -1 -121 2 -203 8 -203 15 0
19 51 24 295 3 127 12 284 21 350 8 66 15 143 15 170 0 51 32 233 48 276 13
33 60 78 89 85 22 6 160 0 223 -9 16 -2 26 -11 28 -24 2 -12 14 -33 26 -46 18
-19 21 -28 12 -37 -8 -9 -2 -10 24 -6 19 4 60 8 91 10 60 4 91 16 111 45 7 10
18 18 23 17 6 0 14 9 20 22 11 26 25 29 25 5 0 -14 3 -13 23 5 13 12 29 22 37
22 10 0 91 41 108 56 2 1 1 12 -3 23 -6 21 -7 21 -706 21 l-699 0 0 -75z"/>
<path d="M1447 2973 c-6 -32 -6 -32 19 -37 51 -10 104 -28 109 -36 3 -6 20
-10 37 -10 27 0 30 2 24 25 -5 19 -2 25 10 25 14 0 14 3 4 15 -11 13 -10 14 4
9 10 -4 16 -15 14 -27 -2 -17 7 -24 47 -39 28 -10 53 -18 57 -18 3 0 8 27 10
60 l3 60 -166 0 -167 0 -5 -27z m23 -13 c0 -5 -5 -10 -11 -10 -5 0 -7 5 -4 10
3 6 8 10 11 10 2 0 4 -4 4 -10z"/>
<path d="M2241 2940 c-31 -78 -22 -90 48 -64 28 10 50 21 49 24 -2 3 -12 27
-23 53 -11 26 -27 47 -35 47 -9 0 -25 -24 -39 -60z"/>
<path d="M2707 2965 c-19 -40 -70 -75 -109 -75 -22 0 -26 -4 -25 -22 3 -34 17
-51 70 -87 27 -18 57 -46 67 -63 22 -37 32 -158 31 -373 -1 -165 6 -273 18
-294 10 -15 62 6 59 23 -1 6 5 25 14 42 16 29 24 122 19 224 -1 25 2 90 7 145
5 55 7 193 4 308 l-5 207 -66 0 c-67 0 -67 0 -84 -35z"/>
<path d="M1936 2854 c-7 -20 -8 -54 -1 -54 8 0 54 53 55 63 0 14 -48 7 -54 -9z"/>
<path d="M1765 2840 c3 -5 8 -10 11 -10 2 0 4 5 4 10 0 6 -5 10 -11 10 -5 0
-7 -4 -4 -10z"/>
<path d="M1636 2831 c-4 -5 3 -7 14 -4 23 6 26 13 6 13 -8 0 -17 -4 -20 -9z"/>
<path d="M1520 2823 c-8 -3 -35 -19 -60 -35 l-45 -30 35 7 c19 4 48 20 65 36
30 30 31 32 5 22z"/>
<path d="M1371 2763 c-9 -15 -12 -16 -20 -4 -7 11 -11 9 -21 -8 -20 -39 -5
-45 31 -13 18 16 31 33 27 37 -3 4 -11 -2 -17 -12z"/>
<path d="M1755 2760 c3 -5 11 -10 17 -10 15 0 99 -41 121 -59 9 -8 17 -10 17
-4 0 14 -49 47 -98 66 -48 19 -66 21 -57 7z"/>
<path d="M1549 2746 c10 -12 8 -17 -9 -26 -20 -11 -21 -10 -15 9 5 18 2 21
-20 21 -104 0 -256 -97 -290 -186 -9 -22 -13 -28 -10 -14 2 14 5 30 5 36 0 6
19 32 41 58 23 26 39 49 37 52 -3 2 -22 -3 -42 -11 -20 -9 -41 -13 -46 -10 -9
5 -40 -51 -54 -98 -8 -25 -22 -14 -29 22 -4 21 -11 29 -24 27 -11 -2 -17 -10
-15 -21 2 -9 -1 -14 -6 -11 -12 7 -22 -16 -22 -49 0 -13 -5 -36 -10 -51 -8
-20 -14 -24 -22 -16 -9 9 -8 18 1 36 9 16 11 37 5 67 -4 24 -7 51 -5 59 2 11
0 12 -9 4 -6 -6 -12 -35 -12 -64 l-1 -53 -17 52 c-10 28 -20 54 -23 58 -12 11
-17 -44 -9 -90 9 -43 8 -47 -8 -42 -14 4 -18 0 -18 -17 -1 -13 -3 -40 -6 -60
-2 -21 0 -38 5 -38 5 0 9 -5 9 -11 0 -5 -5 -7 -12 -3 -6 4 -8 3 -5 -3 4 -7 22
-7 49 -2 88 17 91 1 4 -20 -28 -7 -60 -22 -73 -34 -87 -84 -80 -80 -113 -69
-34 12 -40 3 -11 -15 36 -23 15 -82 -50 -141 -21 -20 -39 -44 -39 -53 0 -9 -7
-33 -15 -53 -14 -33 -13 -40 8 -37 11 2 9 -57 -3 -64 -5 -3 -10 1 -10 9 0 9
-6 13 -15 10 -10 -4 -12 -15 -8 -35 4 -21 1 -34 -10 -42 -21 -16 -37 -80 -37
-144 0 -52 0 -53 -31 -53 -34 0 -68 15 -86 39 -11 14 -12 14 -12 1 1 -8 4 -26
8 -40 7 -21 0 -33 -41 -77 -30 -32 -48 -61 -48 -76 0 -13 -11 -45 -25 -71 -14
-26 -25 -60 -25 -76 0 -18 -13 -44 -35 -70 -42 -50 -44 -75 -9 -111 19 -20 24
-32 18 -53 -3 -14 -12 -26 -20 -26 -23 0 -65 -23 -61 -34 2 -6 14 -13 28 -16
18 -4 25 -13 27 -35 5 -59 12 -73 46 -93 73 -43 84 -130 21 -178 -18 -13 -39
-22 -48 -19 -8 4 -18 1 -23 -6 -4 -7 -2 -15 4 -17 26 -8 10 -20 -35 -26 -97
-13 -103 -16 -103 -41 0 -14 9 -43 21 -65 30 -57 17 -69 -71 -68 -37 0 -73 -3
-79 -6 -7 -5 -11 -81 -11 -236 l0 -229 615 -1 c352 0 615 4 615 9 0 21 -26 30
-47 16 -19 -14 -22 -12 -33 15 -7 17 -17 30 -22 30 -9 0 -50 84 -62 130 -7 24
-7 24 8 5 9 -11 53 -62 98 -112 l83 -93 145 0 145 0 45 41 c25 22 37 36 28 32
-9 -5 -37 -7 -62 -5 -39 3 -46 8 -55 33 -5 16 -15 29 -20 29 -6 0 -11 7 -11
15 0 8 5 15 11 15 6 0 9 6 6 14 -4 9 5 19 24 26 39 17 45 28 23 46 -18 13 -18
14 3 20 25 7 40 34 18 34 -23 0 -27 18 -8 46 l17 27 -27 -5 c-20 -4 -28 -1
-32 13 -4 11 -13 19 -21 19 -8 0 -14 3 -14 8 1 12 38 52 49 52 6 0 11 5 11 10
0 6 9 10 20 10 11 0 20 4 20 9 0 5 21 14 47 20 37 10 48 9 55 -1 6 -10 10 -7
14 9 4 13 9 23 13 23 14 0 71 57 71 71 1 19 24 49 39 49 6 0 11 4 11 10 0 5
14 22 31 37 43 38 119 141 119 161 0 13 -3 12 -15 -5 -8 -12 -28 -28 -43 -36
-15 -7 -71 -37 -124 -65 -53 -29 -119 -59 -145 -67 -26 -9 -59 -21 -72 -28
-33 -16 -301 -14 -301 3 0 10 -146 10 -172 -1 -24 -10 -31 -8 -59 15 -17 14
-38 26 -48 26 -29 0 -103 94 -137 175 -9 22 -24 117 -35 220 -10 99 -27 214
-36 255 -21 90 -21 255 0 408 7 56 12 102 10 102 -3 0 -13 -4 -23 -10 -16 -8
-18 -6 -15 16 1 13 11 31 21 39 11 8 14 14 7 15 -21 0 -15 20 6 20 17 0 28 13
37 45 19 63 42 170 38 176 -2 4 0 10 6 14 5 3 10 -1 10 -9 0 -24 9 -20 62 30
26 25 64 52 83 60 50 21 249 31 270 14 10 -8 42 -12 91 -11 58 1 83 -2 107
-17 18 -10 58 -29 89 -42 48 -18 67 -33 105 -84 59 -75 150 -166 168 -166 21
0 91 -85 126 -153 59 -113 61 -119 53 -187 -4 -36 -8 -92 -7 -125 1 -47 2
-361 1 -435 0 -8 4 -72 9 -143 8 -106 13 -132 31 -157 12 -16 22 -38 22 -48 0
-11 -35 -93 -79 -183 -43 -90 -81 -176 -85 -192 -14 -61 -59 -138 -105 -183
-27 -27 -47 -52 -45 -56 3 -4 -2 -5 -10 -2 -9 3 -19 -3 -26 -16 -6 -11 -15
-18 -21 -15 -5 4 -9 1 -9 -4 0 -6 5 -11 10 -11 6 0 15 -11 20 -25 l10 -25 289
0 290 0 4 33 3 32 8 -32 8 -32 324 -1 324 0 0 264 0 264 -25 30 c-27 32 -40
112 -38 217 1 41 0 47 -10 34 -10 -13 -12 -4 -13 48 0 35 -6 69 -12 75 -7 7
-12 23 -12 37 0 24 0 24 15 5 13 -16 13 -14 0 15 -16 32 -19 33 -57 27 -22 -4
-81 -27 -131 -52 -54 -27 -101 -44 -116 -42 -14 2 -24 7 -23 11 5 12 -48 67
-64 67 -6 0 -17 7 -24 15 -8 10 -24 13 -50 10 l-38 -5 13 45 c8 24 10 47 5 50
-4 3 -11 -1 -13 -7 -3 -7 -6 -2 -6 13 -1 31 -18 49 -46 49 -26 0 -42 37 -49
115 -6 78 -25 163 -37 171 -5 3 -9 15 -10 27 0 16 -5 10 -17 -20 -9 -23 -20
-45 -24 -49 -7 -6 18 88 36 141 4 11 -1 7 -10 -10 -12 -22 -19 -26 -22 -15 -3
8 -9 18 -14 21 -6 4 -3 19 6 37 9 17 16 40 16 52 0 11 11 32 24 46 l23 26 -1
-38 c-1 -29 3 -39 14 -39 22 0 13 64 -12 84 -20 17 -20 17 0 52 12 22 18 47
15 69 -7 52 -46 139 -65 146 -10 3 -18 12 -18 20 0 8 -9 24 -19 36 -11 11 -17
26 -14 34 3 7 -2 21 -11 29 -9 9 -16 20 -16 24 0 16 36 39 64 43 35 4 48 28
16 28 -12 0 -19 -4 -16 -9 3 -5 -9 -9 -27 -9 -17 1 -37 -1 -44 -3 -6 -2 -13 1
-15 6 -1 6 8 12 22 13 34 5 47 19 31 35 -10 10 -12 9 -9 -3 4 -17 -34 -26 -57
-13 -14 8 -13 12 4 32 22 25 36 59 28 68 -3 2 -8 -5 -12 -16 -3 -12 -13 -21
-21 -21 -19 0 -18 15 4 36 9 10 17 28 17 42 1 21 -3 23 -27 18 -21 -4 -26 -2
-21 9 3 8 0 15 -6 15 -6 0 -11 5 -11 11 0 6 6 9 14 6 8 -3 21 4 30 18 16 24
15 24 -19 18 -28 -4 -35 -2 -35 10 0 10 -10 16 -27 16 -51 2 -78 6 -84 14 -3
4 -18 3 -33 -3 -15 -5 -34 -10 -43 -10 -13 0 -13 3 -3 15 7 8 23 15 36 15 22
0 64 34 64 51 0 5 -19 1 -42 -7 -23 -8 -44 -10 -47 -5 -9 14 -88 11 -126 -5
-41 -17 -48 -17 -40 -3 5 7 -8 9 -41 5 -37 -4 -41 -3 -19 3 17 5 47 9 68 10
21 0 52 8 68 17 24 12 34 13 45 3 10 -8 14 -8 14 0 0 6 10 11 23 12 21 0 79
59 58 59 -5 0 -13 -4 -16 -10 -10 -16 -25 -12 -19 5 4 10 0 15 -14 15 -10 0
-31 9 -46 21 -14 11 -38 22 -53 25 -34 6 -45 13 -38 24 3 4 -2 10 -10 14 -8 3
-17 1 -21 -5 -3 -6 -19 -7 -34 -4 -37 8 -142 -39 -201 -91 l-44 -38 40 43 c22
23 64 54 93 68 28 15 52 30 52 35 0 4 -19 8 -41 8 -35 0 -40 -2 -30 -14z m71
-57 c-14 -12 -45 -32 -70 -45 -25 -13 -61 -36 -80 -51 l-35 -27 25 28 c26 29
68 59 136 95 49 26 56 26 24 0z m-198 -41 c-7 -7 -12 -8 -12 -2 0 14 12 26 19
19 2 -3 -1 -11 -7 -17z m566 -203 c-3 -3 -13 -2 -22 1 -14 5 -15 9 -4 15 13 8
36 -6 26 -16z m-1203 -385 c-3 -5 -15 -10 -26 -10 -10 0 -19 5 -19 10 0 6 12
10 26 10 14 0 23 -4 19 -10z m-36 -161 c-6 -12 -9 -30 -6 -41 3 -10 -3 -39
-14 -64 -21 -46 -36 -60 -24 -21 4 12 8 46 9 75 1 34 7 56 16 62 24 16 31 11
19 -11z m-99 -99 c0 -5 -4 -10 -10 -10 -5 0 -10 5 -10 10 0 6 5 10 10 10 6 0
10 -4 10 -10z m-15 -267 c-5 -35 -2 -33 12 7 3 12 8 10 24 -9 20 -24 27 -101
9 -101 -5 0 -10 5 -10 11 0 5 -5 7 -10 4 -6 -3 -14 4 -19 17 -8 19 -10 14 -11
-27 -1 -27 -4 -44 -7 -37 -4 10 -8 10 -19 1 -12 -9 -14 -5 -14 29 0 22 7 53
15 68 8 16 15 36 15 45 0 15 8 29 17 29 2 0 1 -17 -2 -37z m1602 -175 c-3 -8
-6 -5 -6 6 -1 11 2 17 5 13 3 -3 4 -12 1 -19z m-1474 -410 c-5 -27 -23 -40
-23 -17 0 13 20 52 25 47 2 -1 1 -15 -2 -30z m-115 -111 c12 -13 24 -37 28
-54 5 -25 2 -34 -17 -47 -75 -52 -170 34 -108 100 29 30 69 31 97 1z m172 -92
c1 16 4 14 12 -8 20 -56 -12 -45 -46 15 l-18 33 26 -30 c22 -27 25 -28 26 -10z
m-449 -121 c9 -11 10 -20 3 -32 -16 -25 -32 -25 -44 -2 -22 41 12 69 41 34z
m690 -84 c-1 -34 2 -67 7 -73 13 -17 22 -81 13 -96 -6 -8 -12 -3 -19 16 -13
32 -42 192 -42 232 l0 25 22 -21 c18 -19 21 -32 19 -83z m-761 59 c0 -10 -4
-19 -10 -19 -5 0 -10 12 -10 26 0 14 4 23 10 19 6 -3 10 -15 10 -26z m460
-116 c-1 -10 -86 -77 -103 -81 -6 -2 10 17 38 42 47 44 65 55 65 39z m-311
-311 c-11 -2 -19 -8 -19 -14 0 -6 -3 -8 -6 -5 -4 4 1 19 11 34 17 25 19 26 25
8 5 -15 2 -21 -11 -23z m-80 -82 c-12 -16 -26 -27 -31 -24 -5 3 -24 -6 -43
-20 -45 -35 -56 -33 -13 1 18 15 35 30 38 33 10 10 55 39 63 39 4 1 -2 -12
-14 -29z"/>
<path d="M1005 2700 c-3 -5 1 -10 9 -10 8 0 18 5 21 10 3 6 -1 10 -9 10 -8 0
-18 -4 -21 -10z"/>
<path d="M2275 2670 c-8 -12 -8 -278 0 -315 2 -11 4 -28 4 -37 1 -28 19 -21
36 13 15 27 15 33 1 53 -10 16 -16 63 -20 156 -3 73 -8 135 -10 137 -2 3 -7
-1 -11 -7z"/>
<path d="M2008 2513 c7 -3 16 -2 19 1 4 3 -2 6 -13 5 -11 0 -14 -3 -6 -6z"/>
<path d="M2040 2500 c0 -13 20 -13 40 0 12 8 9 10 -12 10 -16 0 -28 -4 -28
-10z"/>
<path d="M2125 2400 c-3 -5 -2 -10 4 -10 5 0 13 5 16 10 3 6 2 10 -4 10 -5 0
-13 -4 -16 -10z"/>
<path d="M2267 2183 c-4 -3 -7 -11 -7 -17 0 -6 5 -5 12 2 6 6 9 14 7 17 -3 3
-9 2 -12 -2z"/>
<path d="M2778 1973 c-9 -2 -19 -12 -23 -21 -11 -26 -5 -572 6 -617 6 -22 18
-46 27 -52 23 -19 59 -16 67 5 9 23 6 441 -4 562 -5 54 -13 96 -20 98 -6 2
-11 10 -11 18 0 14 -10 16 -42 7z"/>
<path d="M1534 1849 c-16 -4 -45 -10 -64 -13 -44 -8 -59 -41 -52 -115 4 -41 9
-54 26 -61 30 -13 56 -35 56 -48 0 -23 141 -44 154 -23 7 10 -27 21 -68 21
-20 0 -27 4 -23 14 4 9 -2 17 -14 21 -21 7 -21 26 -1 33 7 2 12 -4 12 -13 0
-14 11 -16 74 -14 59 3 79 0 94 -14 21 -19 57 -23 68 -6 12 20 -57 77 -120 99
-33 11 -68 20 -78 20 -31 0 -20 18 19 31 23 7 69 10 125 7 48 -3 88 -4 88 -2
0 2 -19 16 -42 30 -35 22 -47 25 -69 17 -18 -7 -32 -7 -45 0 -27 15 -105 24
-140 16z"/>
<path d="M966 1821 c-103 -35 -117 -52 -119 -153 -1 -42 0 -78 3 -81 16 -15
50 -16 64 -1 9 9 24 13 32 10 14 -5 14 -9 3 -22 -11 -14 -10 -19 11 -36 27
-22 85 -19 139 8 17 9 39 13 50 9 16 -5 24 5 46 50 39 79 43 131 13 174 -12
19 -26 34 -30 33 -4 -1 -28 7 -54 18 -56 24 -60 24 -158 -9z m54 -85 c0 -2
-27 -13 -60 -25 -55 -20 -60 -25 -70 -61 -14 -51 -23 -52 -16 -2 8 64 10 67
41 79 28 11 105 18 105 9z m60 -76 c0 -5 -2 -10 -4 -10 -3 0 -8 5 -11 10 -3 6
-1 10 4 10 6 0 11 -4 11 -10z m64 -19 c3 -5 -1 -11 -9 -15 -9 -3 -15 0 -15 9
0 16 16 20 24 6z m-34 -36 c0 -9 -43 -11 -115 -4 -18 1 -7 5 30 9 74 8 86 8
85 -5z"/>
<path d="M2286 1764 c-4 -14 -5 -29 -2 -31 3 -3 8 7 12 21 3 15 4 29 1 32 -2
3 -8 -7 -11 -22z"/>
<path d="M2325 1750 c-3 -5 -1 -10 4 -10 6 0 11 5 11 10 0 6 -2 10 -4 10 -3 0
-8 -4 -11 -10z"/>
<path d="M2311 1588 c-9 -15 -10 -23 -1 -32 8 -8 13 -7 20 4 7 10 10 11 10 3
0 -7 6 -13 13 -13 8 0 19 -10 26 -22 11 -22 11 -21 6 7 l-5 30 16 -30 c12 -20
13 -30 5 -33 -7 -2 -10 -28 -9 -70 1 -40 3 -53 5 -32 3 22 15 44 33 60 30 25
33 35 31 80 -1 29 -56 65 -83 55 -9 -4 -25 -2 -35 4 -15 7 -22 5 -32 -11z"/>
<path d="M2483 1336 c-14 -18 -27 -23 -53 -21 -32 3 -33 2 -15 -11 11 -8 20
-20 20 -27 0 -7 8 -11 18 -11 9 1 15 -2 12 -6 -5 -9 20 -31 58 -50 35 -17 47
-6 54 48 5 36 2 45 -25 72 -37 36 -45 37 -69 6z"/>
<path d="M1147 1322 c-15 -15 -27 -36 -27 -46 0 -13 -5 -16 -17 -12 -11 4 -8
-2 7 -14 14 -11 41 -24 60 -30 45 -12 133 -7 138 8 2 7 24 12 53 12 50 0 89
13 89 29 0 21 -56 42 -148 56 -55 8 -106 17 -114 20 -7 3 -26 -7 -41 -23z"/>
<path d="M2370 1267 c0 -23 18 -57 30 -57 16 0 11 26 -10 51 -17 21 -19 22
-20 6z"/>
<path d="M2470 1211 c0 -5 11 -18 25 -29 13 -11 22 -22 18 -26 -3 -3 2 -15 12
-26 16 -18 14 -25 -8 -21 -5 1 -7 -6 -5 -15 2 -11 21 -21 51 -29 43 -11 47
-11 41 4 -4 9 -9 26 -11 37 -5 22 -27 47 -78 89 -32 26 -45 31 -45 16z"/>
<path d="M1159 1118 c-24 -10 -54 -29 -67 -40 -16 -16 -25 -19 -33 -11 -9 9
-18 8 -35 -4 -27 -17 -59 -109 -48 -136 8 -22 -21 -33 -41 -17 -25 21 -28 5
-11 -53 14 -47 21 -57 48 -66 26 -9 35 -9 43 1 5 7 19 12 31 10 11 -2 26 4 33
12 10 12 8 14 -11 9 -18 -4 -20 -3 -11 7 13 15 -13 51 -32 44 -6 -3 -17 6 -23
20 -9 20 -8 29 8 49 11 14 32 28 47 32 16 3 35 13 44 21 11 10 51 16 135 19
174 7 201 7 282 3 40 -3 75 -1 78 3 2 4 -7 20 -21 36 -18 21 -27 25 -33 15 -7
-10 -18 -9 -55 7 -28 12 -59 18 -75 15 -29 -5 -89 5 -163 29 -43 14 -49 14
-90 -5z"/>
<path d="M2460 1128 c0 -8 7 -21 15 -28 19 -16 19 -1 0 24 -12 16 -15 17 -15
4z"/>
<path d="M2430 1060 c0 -5 8 -10 18 -10 9 0 28 -3 42 -5 22 -5 21 -3 -5 9 -36
18 -55 20 -55 6z"/>
<path d="M2683 1051 c-28 -7 -18 -26 22 -41 21 -8 36 -8 57 1 46 19 36 29 -42
43 -8 1 -25 0 -37 -3z"/>
<path d="M2520 1042 c0 -4 13 -13 29 -20 16 -7 46 -26 65 -42 23 -18 44 -26
56 -23 32 9 33 22 3 34 -119 46 -153 57 -153 51z"/>
<path d="M1148 972 c-10 -2 -18 -10 -18 -18 0 -8 -7 -14 -15 -14 -8 0 -15 -5
-15 -11 0 -7 -7 -17 -16 -24 -15 -10 -13 -15 18 -38 35 -27 36 -27 126 -18
100 11 137 24 160 59 13 21 13 22 -8 22 -16 0 -20 4 -16 15 4 12 -7 15 -67 15
-40 0 -86 4 -102 8 -17 5 -38 6 -47 4z"/>
<path d="M1590 25 l-23 -25 41 0 42 0 -16 25 c-9 14 -17 25 -18 25 -2 0 -13
-11 -26 -25z"/>
<path d="M1685 10 c-3 -5 3 -10 15 -10 12 0 18 5 15 10 -3 6 -10 10 -15 10 -5
0 -12 -4 -15 -10z"/>
</g>
</svg>
